<?xml version="1.0" standalone="no"?>
<!DOCTYPE svg PUBLIC "-//W3C//DTD SVG 20010904//EN"
 "http://www.w3.org/TR/2001/REC-SVG-20010904/DTD/svg10.dtd">
<svg version="1.0" xmlns="http://www.w3.org/2000/svg"
 width="314.000000pt" height="69.000000pt" viewBox="0 0 314.000000 69.000000"
 preserveAspectRatio="xMidYMid meet">

<g transform="translate(0.000000,69.000000) scale(0.100000,-0.100000)"
fill="#ffffff" stroke="none">
<path d="M57 573 c-4 -3 -7 -21 -7 -40 l0 -33 185 0 185 0 0 40 0 40 -178 0
c-98 0 -182 -3 -185 -7z"/>
<path d="M554 566 c-3 -8 -4 -97 -2 -198 3 -206 11 -233 72 -262 28 -13 60
-16 158 -14 l123 3 0 40 0 40 -119 3 c-67 1 -126 7 -133 14 -10 8 -13 54 -13
187 0 124 -4 181 -12 189 -17 17 -67 15 -74 -2z"/>
<path d="M1110 562 c-59 -29 -70 -66 -70 -227 0 -219 23 -245 213 -245 125 0
162 12 192 63 18 28 20 51 20 182 0 224 -17 243 -215 244 -81 1 -113 -3 -140
-17z m251 -81 c23 -18 24 -25 24 -144 0 -90 -4 -128 -14 -140 -11 -14 -33 -17
-122 -17 -97 0 -109 2 -119 19 -5 11 -10 74 -10 140 0 157 3 161 129 161 73 0
93 -3 112 -19z"/>
<path d="M1600 541 l0 -41 143 0 c98 0 147 -4 155 -12 7 -7 12 -28 12 -48 0
-20 -5 -41 -12 -48 -8 -8 -57 -12 -155 -12 l-144 0 3 -142 3 -143 35 0 35 0 3
96 3 97 122 3 c149 5 169 14 187 88 15 63 4 135 -25 169 l-23 27 -171 3 -171
3 0 -40z"/>
<path d="M2130 540 l0 -40 136 0 c74 0 144 -5 155 -10 22 -12 27 -78 7 -98 -8
-8 -57 -12 -155 -12 l-143 0 0 -146 0 -145 38 3 37 3 3 98 3 97 102 0 c179 0
212 24 211 150 -1 125 -27 140 -244 140 l-150 0 0 -40z"/>
<path d="M2660 569 c0 -7 38 -81 85 -165 83 -150 85 -154 85 -221 0 -83 7 -95
51 -91 l34 3 5 80 c5 79 6 82 93 233 48 83 87 157 87 163 0 6 -17 9 -42 7
l-43 -3 -65 -117 c-36 -65 -68 -117 -71 -118 -3 0 -34 53 -70 118 l-64 117
-42 3 c-29 2 -43 -1 -43 -9z"/>
<path d="M65 356 c-12 -19 -15 -48 -13 -142 l3 -119 37 -3 37 -3 3 98 3 98
140 5 140 5 0 40 0 40 -167 3 c-167 2 -167 2 -183 -22z"/>
</g>
</svg>
